<?xml version="1.0" encoding="utf-8"?>
<!-- Generator: Adobe Illustrator 16.0.0, SVG Export Plug-In . SVG Version: 6.00 Build 0)  -->
<!DOCTYPE svg PUBLIC "-//W3C//DTD SVG 1.1//EN" "http://www.w3.org/Graphics/SVG/1.1/DTD/svg11.dtd">
<svg version="1.1" id="Layer_1" xmlns="http://www.w3.org/2000/svg" xmlns:xlink="http://www.w3.org/1999/xlink" x="0px" y="0px"
	 width="76.314px" height="20px" viewBox="0 0 76.314 20" enable-background="new 0 0 76.314 20" xml:space="preserve">
<g>
	<path fill="#9A1032" d="M36.166,11.034c-1.066-0.016-2.144-0.113-3.196,0.005c-1.566,0.175-2.47,1.149-2.654,2.725
		c-0.075,0.643-0.012,1.3-0.012,1.989c-0.068,0.003-0.142,0.009-0.215,0.009c-2.086,0.001-4.171,0.002-6.257-0.001
		c-0.192-0.001-0.384-0.021-0.574-0.048c-0.616-0.087-0.889-0.385-0.898-1.007c-0.009-0.643,0.005-1.288-0.007-1.933
		c-0.004-0.221,0.06-0.302,0.288-0.296c0.524,0.015,1.049,0.01,1.572-0.001c0.086-0.002,0.229-0.06,0.247-0.122
		c0.121-0.413,0.216-0.837,0.333-1.313c-0.852,0-1.626,0-2.432,0c0.017-0.361,0.029-0.681,0.046-1s0.04-0.639,0.062-0.991
		c-0.557,0.164-1.028,0.421-1.471,0.747c-0.298,0.219-0.486,0.471-0.417,0.864c0.02,0.111,0.003,0.23,0.003,0.391
		c-0.371,0-0.708,0-1.075,0c-0.035,0.493-0.067,0.947-0.102,1.446c0.418,0,0.786,0,1.177,0c0,0.182-0.002,0.32,0,0.457
		c0.012,0.785-0.007,1.569,0.045,2.352c0.064,0.953,0.661,1.607,1.593,1.809c0.258,0.055,0.529,0.074,0.795,0.074
		c2.898,0.005,5.797-0.005,8.696,0.009c0.684,0.003,1.256-0.226,1.653-0.76c0.373-0.504,0.663-1.069,0.985-1.61
		c0.076-0.132,0.132-0.277,0.199-0.415c0.023,0.006,0.048,0.012,0.071,0.018c0,0.914,0,1.828,0,2.74c0.601,0,1.166,0,1.717,0
		c0.02-0.04,0.035-0.059,0.035-0.078c0.004-1.953,0.01-3.907,0-5.861C36.375,11.163,36.241,11.035,36.166,11.034z M33.404,15.336
		c-0.074,0.111-0.182,0.213-0.292,0.291c-0.329,0.238-0.662,0.157-0.8-0.224c-0.104-0.288-0.166-0.6-0.191-0.905
		c-0.036-0.426-0.038-0.857-0.025-1.284c0.014-0.496,0.25-0.799,0.739-0.862c0.565-0.071,1.141-0.074,1.782-0.111
		C34.25,13.345,34.036,14.42,33.404,15.336z"/>
	<path fill="#9A1032" d="M11.578,17.258c-0.547-0.266-1.077-0.568-1.614-0.856c-0.385-0.205-0.767-0.413-1.185-0.638
		c0.391-0.204,0.748-0.356,1.066-0.567s0.631-0.45,0.892-0.728c1.592-1.702,1.017-4.437-1.111-5.321
		C8.933,8.86,8.202,8.76,7.458,8.817C5.974,8.93,4.752,9.526,4.123,10.944c-0.639,1.438-0.469,2.829,0.519,4.08
		c0.609,0.771,1.409,1.311,2.262,1.766c1.548,0.822,3.103,1.631,4.655,2.443c0.396,0.207,0.792,0.413,1.222,0.636
		c0-0.267,0.009-0.487-0.001-0.709C12.735,18.303,12.378,17.647,11.578,17.258z M8.373,15.385c-0.05,0.046-0.185,0.057-0.248,0.023
		c-0.701-0.372-1.381-0.776-1.887-1.411c-0.585-0.735-0.732-1.56-0.451-2.449c0.251-0.796,0.903-1.244,1.835-1.297
		c0.853-0.048,1.547,0.335,1.856,1.096c0.159,0.39,0.217,0.82,0.32,1.231C9.764,13.762,9.18,14.63,8.373,15.385z"/>
	<path fill="#9A1032" d="M22.811,6.487c0.021,0.093,0.115,0.241,0.177,0.243c0.713,0.017,1.426,0.01,2.15,0.01
		c0.291-1.689,0.575-3.344,0.86-4.996c0.022,0.003,0.043,0.006,0.065,0.008c0.307,1.66,0.612,3.319,0.921,4.99
		c0.677,0,1.318-0.012,1.958,0.007c0.244,0.007,0.324-0.08,0.373-0.309c0.343-1.593,0.702-3.181,1.056-4.771
		c0.114-0.508,0.225-1.016,0.342-1.544c-0.588,0-1.13,0-1.697,0c-0.143,0.828-0.286,1.651-0.425,2.475
		c-0.14,0.821-0.277,1.645-0.415,2.466c-0.084-0.072-0.106-0.14-0.12-0.21c-0.275-1.497-0.554-2.993-0.816-4.491
		c-0.037-0.206-0.111-0.26-0.308-0.256c-0.587,0.011-1.176,0.007-1.764,0.001c-0.157-0.001-0.222,0.047-0.248,0.21
		c-0.118,0.73-0.251,1.458-0.379,2.187c-0.153,0.873-0.306,1.747-0.459,2.621c-0.019,0-0.038,0-0.056,0
		c-0.281-1.664-0.56-3.328-0.842-4.996c-0.603,0-1.185,0-1.782,0c0.045,0.208,0.083,0.396,0.125,0.584
		C21.953,2.64,22.377,4.563,22.811,6.487z"/>
	<path fill="#9A1032" d="M56.379,10.245c-0.794-0.738-1.778-0.982-2.987-0.993c-0.149,0.017-0.449,0.032-0.743,0.08
		c-1.881,0.302-3.061,1.716-3.008,3.603c0.049,1.878,1.6,3.851,3.419,4.288c0.342,0.084,0.761,0.076,1.092-0.041
		c1.591-0.564,2.69-1.657,3.144-3.3C57.671,12.521,57.455,11.249,56.379,10.245z M55.601,13.015c0,0.848-0.142,1.673-0.593,2.401
		c-0.209,0.34-0.483,0.658-0.785,0.919c-0.494,0.429-0.858,0.41-1.375-0.002c-0.79-0.63-1.167-1.498-1.291-2.471
		c-0.067-0.513-0.093-1.055-0.01-1.563c0.176-1.076,1.024-1.676,2.133-1.598c1.121,0.076,1.839,0.771,1.919,1.862
		C55.61,12.714,55.601,12.865,55.601,13.015z"/>
	<path fill="#9A1032" d="M51.382,6.737c0.681-0.027,1.373-0.026,2.04-0.148c1.25-0.228,2.126-0.945,2.391-2.239
		c0.1-0.486,0.107-1.006,0.068-1.503c-0.072-0.932-0.434-1.748-1.3-2.194c-0.445-0.23-0.958-0.416-1.453-0.451
		c-1.148-0.08-2.303-0.059-3.456-0.076c-0.016-0.001-0.033,0.02-0.064,0.037c0,2.178,0,4.361,0,6.58
		C50.211,6.742,50.797,6.761,51.382,6.737z M51.364,1.413c0.883-0.021,1.758-0.083,2.376,0.717c0.466,0.604,0.508,1.802,0.082,2.477
		c-0.582,0.926-1.519,0.842-2.458,0.843C51.364,4.082,51.364,2.765,51.364,1.413z"/>
	<path fill="#9A1032" d="M14.678,11.146c-1.141,0.33-1.87,1.096-2.059,2.268c-0.11,0.688-0.099,1.409-0.049,2.109
		c0.027,0.389,0.2,0.79,0.391,1.141c0.309,0.563,0.862,0.752,1.485,0.598c0.514-0.125,0.926-0.424,1.209-0.848
		c0.366-0.549,0.668-1.143,0.996-1.718c0.051-0.091,0.091-0.188,0.137-0.28c0.022,0.008,0.044,0.015,0.067,0.022
		c0,0.908,0,1.816,0,2.732c0.598,0,1.168,0,1.752,0c0-2.047,0-4.072,0-6.133C17.284,10.975,15.973,10.769,14.678,11.146z
		 M16.88,12.339c-0.343,0.896-0.673,1.798-1.042,2.683c-0.093,0.227-0.285,0.432-0.477,0.592c-0.327,0.271-0.686,0.176-0.816-0.226
		c-0.114-0.353-0.164-0.729-0.203-1.1c-0.035-0.329-0.026-0.664-0.02-0.996c0.01-0.567,0.247-0.878,0.799-0.948
		c0.548-0.068,1.105-0.067,1.657-0.098C16.813,12.278,16.847,12.308,16.88,12.339z"/>
	<path fill="#9A1032" d="M35.27,0.151c-0.459-0.121-0.953-0.16-1.426-0.144c-1.551,0.054-2.586,0.888-2.917,2.319
		c-0.083,0.354-0.099,0.721-0.146,1.082c0.008,0.001,0.016,0.002,0.024,0.004c0.01,0.203,0.014,0.406,0.032,0.61
		c0.123,1.341,0.89,2.35,2.103,2.667c0.468,0.125,0.973,0.173,1.455,0.155c1.594-0.059,2.658-0.949,2.94-2.449
		c0.086-0.449,0.104-0.921,0.08-1.377C37.34,1.532,36.573,0.494,35.27,0.151z M35.338,4.778c-0.236,0.513-0.653,0.778-1.228,0.776
		c-0.575-0.002-1-0.278-1.212-0.793c-0.173-0.418-0.241-0.878-0.358-1.332c0.113-0.455,0.178-0.905,0.341-1.315
		c0.211-0.533,0.642-0.81,1.229-0.813c0.591-0.004,1.02,0.27,1.245,0.796C35.738,2.986,35.742,3.894,35.338,4.778z"/>
	<path fill="#9A1032" d="M39.889,4.135c0.821-0.077,1.115,0.087,1.39,0.813c0.196,0.521,0.349,1.059,0.533,1.582
		c0.029,0.084,0.122,0.2,0.188,0.201c0.551,0.018,1.102,0.01,1.718,0.01c-0.368-0.971-0.704-1.895-1.072-2.805
		c-0.075-0.184-0.27-0.318-0.379-0.445c0.263-0.203,0.595-0.368,0.798-0.632c0.7-0.899,0.301-2.209-0.772-2.578
		c-0.298-0.103-0.626-0.153-0.94-0.159c-0.984-0.021-1.967-0.01-2.951-0.009c-0.082,0-0.165,0.013-0.255,0.021
		c0,2.207,0,4.396,0,6.581c0.59,0,1.149,0,1.743,0C39.889,5.835,39.889,4.982,39.889,4.135z M39.889,1.312
		c0.433,0.051,0.856,0.072,1.269,0.156c0.296,0.061,0.466,0.283,0.472,0.608c0.004,0.354-0.122,0.609-0.456,0.683
		c-0.41,0.094-0.837,0.108-1.284,0.159C39.889,2.363,39.889,1.875,39.889,1.312z"/>
	<path fill="#9A1032" d="M20.15,6.629c-0.765-2.113-1.529-4.227-2.305-6.335c-0.031-0.084-0.179-0.171-0.275-0.173
		c-0.544-0.018-1.09,0.002-1.635-0.014c-0.217-0.007-0.312,0.061-0.386,0.271c-0.592,1.662-1.198,3.32-1.8,4.979
		c-0.164,0.449-0.327,0.9-0.503,1.385c0.468,0,0.894,0,1.319,0c0.674,0,0.683,0.003,0.877-0.655c0.058-0.194,0.151-0.248,0.34-0.243
		c0.438,0.012,0.875,0.004,1.313,0.004c0.735,0,0.73,0.001,0.972,0.682c0.031,0.087,0.142,0.201,0.219,0.203
		c0.618,0.017,1.237,0.009,1.864,0.009C20.151,6.67,20.157,6.647,20.15,6.629z M15.892,4.565c0.259-0.91,0.51-1.787,0.761-2.664
		c0.021-0.002,0.041-0.005,0.062-0.008c0.262,0.873,0.523,1.75,0.798,2.672C16.949,4.565,16.452,4.565,15.892,4.565z"/>
	<path fill="#9A1032" d="M65.995,6.602c0.978,0.372,1.973,0.368,2.943-0.014c0.766-0.302,1.205-0.898,1.347-1.71
		c0.042-0.23,0.06-0.468,0.062-0.702c0.006-1.257,0.002-2.512,0.002-3.767c0-0.093-0.012-0.185-0.018-0.273
		c-0.587,0-1.149,0-1.737,0c0,0.15,0,0.278,0,0.406c0,1.072,0.014,2.146-0.008,3.219c-0.008,0.391-0.055,0.793-0.165,1.167
		c-0.131,0.436-0.495,0.623-0.946,0.628c-0.461,0.007-0.832-0.161-0.988-0.61c-0.104-0.298-0.167-0.625-0.173-0.94
		c-0.02-1.179-0.008-2.36-0.01-3.539c0-0.113,0-0.226,0-0.343c-0.604,0-1.158,0-1.71,0c0,1.592-0.051,3.147,0.021,4.698
		C64.652,5.669,65.187,6.291,65.995,6.602z"/>
	<path fill="#9A1032" d="M44.491,15.561c0.793-0.345,1.601-0.662,2.373-1.045c0.58-0.286,1.07-0.71,1.427-1.266
		c1.038-1.607,0.277-3.559-1.557-3.894c-0.6-0.109-1.244-0.117-1.849-0.025c-1.585,0.239-1.5,0.251-1.911,1.703
		c-0.008,0.03-0.004,0.063-0.006,0.142c0.155-0.055,0.286-0.098,0.415-0.144c0.767-0.269,1.555-0.392,2.365-0.305
		c0.706,0.074,1.109,0.525,1.144,1.238c0.021,0.483-0.103,0.926-0.43,1.275c-0.318,0.344-0.654,0.688-1.036,0.953
		c-0.835,0.577-1.707,1.103-2.558,1.658c-0.093,0.061-0.21,0.183-0.208,0.273c0.006,0.35,0.058,0.696,0.085,1.009
		c0.063,0.036,0.071,0.046,0.081,0.046c1.895,0.004,3.786,0.01,5.679,0.006c0.072,0,0.19-0.072,0.208-0.137
		c0.116-0.406,0.21-0.821,0.327-1.294c-1.683,0-3.292,0-4.902,0C44.253,15.648,44.375,15.61,44.491,15.561z"/>
	<path fill="#9A1032" d="M66.323,15.626c0.853-0.366,1.72-0.703,2.554-1.106c0.59-0.285,1.089-0.72,1.448-1.288
		c0.949-1.502,0.344-3.347-1.28-3.808c-1.135-0.321-2.265-0.213-3.364,0.207c-0.106,0.041-0.229,0.141-0.272,0.244
		c-0.173,0.409-0.316,0.831-0.474,1.246c0.03,0.015,0.058,0.03,0.087,0.046c0.132-0.047,0.262-0.093,0.393-0.138
		c0.756-0.265,1.533-0.385,2.332-0.305c0.71,0.07,1.119,0.501,1.165,1.217c0.033,0.493-0.088,0.956-0.434,1.303
		c-0.419,0.423-0.862,0.837-1.349,1.179c-0.724,0.509-1.496,0.951-2.243,1.431c-0.089,0.057-0.207,0.165-0.205,0.246
		c0.01,0.359,0.057,0.716,0.093,1.093c1.949,0,3.852,0.001,5.752-0.006c0.072,0,0.189-0.073,0.207-0.137
		c0.117-0.406,0.212-0.82,0.328-1.292c-1.685,0-3.295,0-4.904,0C66.21,15.679,66.267,15.65,66.323,15.626z"/>
	<path fill="#9A1032" d="M59.566,15.564c0.794-0.344,1.599-0.661,2.375-1.041c0.589-0.288,1.09-0.719,1.449-1.285
		c1.021-1.603,0.272-3.528-1.549-3.876c-0.607-0.116-1.264-0.122-1.875-0.029c-1.58,0.238-1.498,0.248-1.913,1.742
		c-0.004,0.019,0.004,0.04,0.012,0.1c0.158-0.056,0.298-0.106,0.439-0.155c0.758-0.258,1.533-0.379,2.335-0.292
		c0.68,0.072,1.08,0.489,1.139,1.171c0.045,0.507-0.074,0.982-0.425,1.339c-0.418,0.426-0.861,0.839-1.348,1.182
		c-0.724,0.509-1.497,0.95-2.243,1.432c-0.094,0.061-0.212,0.184-0.21,0.273c0.004,0.351,0.054,0.697,0.085,1.024
		c0.068,0.023,0.088,0.037,0.107,0.037c1.881,0.003,3.762,0.006,5.645,0.003c0.069,0,0.188-0.049,0.202-0.1
		c0.118-0.425,0.218-0.854,0.336-1.334c-1.697,0-3.299,0-4.901,0C59.334,15.653,59.453,15.613,59.566,15.564z"/>
	<path fill="#9A1032" d="M74.567,0.244c-1.078-0.153-2.184-0.128-3.295-0.185c0,2.274,0,4.465,0,6.658c0.582,0,1.14,0,1.719,0
		c0-0.763,0-1.501,0-2.264c0.508-0.033,0.977-0.037,1.438-0.102c1.146-0.161,1.846-0.909,1.883-1.967
		C76.354,1.186,75.803,0.419,74.567,0.244z M73.942,3.107c-0.286,0.061-0.708,0.16-0.854,0.018
		c-0.166-0.161-0.096-0.572-0.127-0.873c0.01-0.001,0.021-0.002,0.031-0.003c0-0.236-0.014-0.473,0.008-0.706
		c0.009-0.07,0.117-0.184,0.181-0.185c0.243-0.005,0.494,0.003,0.731,0.05c0.411,0.084,0.627,0.374,0.637,0.806
		C74.563,2.688,74.364,3.021,73.942,3.107z"/>
	<path fill="#9A1032" d="M11.264,4.35c0.446,0,0.852,0.006,1.256-0.006c0.09-0.002,0.232-0.047,0.258-0.109
		c0.174-0.422,0.322-0.854,0.496-1.331c-0.694,0-1.33,0-2.015,0c0-0.4,0.013-0.743-0.004-1.084
		c-0.012-0.232,0.082-0.291,0.298-0.287c0.652,0.011,1.305,0.007,1.957,0c0.096-0.001,0.253-0.028,0.277-0.086
		c0.177-0.428,0.327-0.866,0.489-1.311c-1.717,0-3.38,0-5.048,0c0,2.209,0,4.392,0,6.589c0.678,0,1.335,0,2.035,0
		C11.264,5.931,11.264,5.153,11.264,4.35z"/>
	<path fill="#9A1032" d="M2.09,2.893c0-0.47,0-0.901,0-1.357c0.753,0,1.478,0.006,2.203-0.005c0.108-0.002,0.279-0.055,0.311-0.131
		c0.173-0.41,0.313-0.836,0.467-1.269c-1.696,0-3.36,0-5.029,0c0,2.21,0,4.4,0,6.601c0.675,0,1.325,0,2.033,0
		c0-0.81,0-1.587,0-2.382c0.441,0,0.847,0.007,1.251-0.007c0.089-0.002,0.229-0.052,0.255-0.115c0.171-0.424,0.318-0.856,0.49-1.335
		C3.379,2.893,2.735,2.893,2.09,2.893z"/>
	<path fill="#9A1032" d="M60.075,6.456c1.27,0.562,2.576,0.496,3.913,0.13c-0.034-0.47-0.063-0.897-0.096-1.333
		c-0.375,0.095-0.692,0.205-1.017,0.249c-0.336,0.045-0.684,0.054-1.022,0.021c-1.044-0.097-1.749-0.867-1.817-1.949
		c-0.067-1.073,0.542-1.976,1.527-2.208c0.666-0.158,1.314-0.044,1.939,0.228c0.102,0.044,0.203,0.087,0.328,0.142
		c0.031-0.271,0.06-0.494,0.079-0.716c0.022-0.224,0.036-0.445,0.053-0.659c-0.816-0.329-1.849-0.437-2.798-0.304
		c-1.624,0.232-2.652,1.227-2.903,2.808C58.011,4.447,58.699,5.847,60.075,6.456z"/>
	<path fill="#9A1032" d="M41.067,11.272c-0.857,0.559-1.114,1.496-1.424,2.4c-0.025-0.108-0.021-0.211-0.027-0.312
		c-0.045-0.694-0.087-1.39-0.14-2.085c-0.006-0.075-0.08-0.208-0.125-0.209c-0.529-0.015-1.057-0.01-1.525-0.01
		c0,2.071,0,4.091,0,6.105c0.641,0,1.21,0,1.674,0c0.194-0.947,0.312-1.867,0.579-2.738c0.302-0.988,0.897-1.739,2.129-1.679
		c-0.053-0.612-0.104-1.193-0.165-1.889C41.662,11.016,41.334,11.098,41.067,11.272z"/>
	<path fill="#9A1032" d="M48.951,5.446c-0.91,0-1.802,0-2.737,0c0-1.801,0-3.562,0-5.323c-0.589,0-1.131,0-1.703,0
		c0,2.221,0,4.409,0,6.596c1.497,0,2.965,0,4.44,0C48.951,6.292,48.951,5.89,48.951,5.446z"/>
	<path fill="#9A1032" d="M7.762,0.137c-0.682,0-1.346,0-2.018,0c0,2.199,0,4.375,0,6.58c0.689,0,1.354,0,2.018,0
		C7.762,4.509,7.762,2.326,7.762,0.137z"/>
	<path fill="#9A1032" d="M52.514,13.282c0.366,0.349,0.692,0.663,1.054,1.01c0.365-0.348,0.692-0.661,1.057-1.009
		c-0.362-0.35-0.689-0.663-1.057-1.013C53.208,12.616,52.88,12.931,52.514,13.282z"/>
</g>
</svg>
