<?xml version="1.0" encoding="utf-8"?>
<!-- Generator: Adobe Illustrator 16.0.0, SVG Export Plug-In . SVG Version: 6.00 Build 0)  -->
<!DOCTYPE svg PUBLIC "-//W3C//DTD SVG 1.1//EN" "http://www.w3.org/Graphics/SVG/1.1/DTD/svg11.dtd">
<svg version="1.1" id="Layer_1" xmlns="http://www.w3.org/2000/svg" xmlns:xlink="http://www.w3.org/1999/xlink" x="0px" y="0px"
	 width="283.465px" height="283.464px" viewBox="0 0 283.465 283.464" enable-background="new 0 0 283.465 283.464"
	 xml:space="preserve">
<rect x="287" fill="none" width="93.562" height="93.562"/>
<g>
	<path fill="#D1D1D1" d="M283.465,233.441c0,27.627-22.396,50.023-50.023,50.023H50.022C22.397,283.464,0,261.068,0,233.441V50.023
		C0,22.396,22.397,0,50.022,0h183.419c27.627,0,50.023,22.396,50.023,50.023V233.441z"/>
	<path fill="#6A6A6A" d="M208.239,132.668l-58.776,0.178v-57.62c0-5.021-4.041-9.063-9.063-9.063s-9.063,4.041-9.063,9.063
		l0.178,57.443h-56.29c-5.02,0-9.061,4.042-9.061,9.063c0,5.02,4.041,9.061,9.061,9.061h56.2v57.445
		c0,5.019,4.043,9.063,9.063,9.063c5.021,0,9.063-4.044,9.063-9.063v-57.443h58.688c5.021,0,9.062-4.045,9.062-9.063
		C217.301,136.71,213.215,132.668,208.239,132.668"/>
</g>
</svg>
