<svg xmlns="http://www.w3.org/2000/svg" xml:space="preserve" id="Layer_1" x="0" y="0" style="enable-background:new 0 0 950.3 141.3" version="1.1" viewBox="0 0 950.3 141.3"><style>.st0{fill:#cb2128}</style><path d="m865.7 72.7 52.8-71.5-.3 71.4-18.5-16.4z" class="st0"/><path d="m862.8 29.2 84.2-1.3-47.2 28.3z" class="st0"/><linearGradient id="SVGID_1_" x1="63.717" x2="63.717" y1="-555.264" y2="315.175" gradientTransform="matrix(1 0 0 -1 0 143.305)" gradientUnits="userSpaceOnUse"><stop offset=".622" style="stop-color:#801517"/><stop offset=".739" style="stop-color:#f15826"/></linearGradient><path d="M88.2 60.3H34.1l-2.7-3.6-4 3.6-22.6 78.5h21.7l4-3.6-2.6-1.2 5.5-19.1h40c34 0 49.2-13.7 49.2-33.4 0-13.4-12-21.2-34.4-21.2zM76.6 98.6H38.1l6.3-21.9H83c13.7 0 18.7 2.2 18.7 8.4-.1 8.9-9.2 13.5-25.1 13.5z" style="fill:url(#SVGID_1_)"/><linearGradient id="SVGID_2_" x1="188.217" x2="188.217" y1="-555.272" y2="315.178" gradientTransform="matrix(1 0 0 -1 0 143.305)" gradientUnits="userSpaceOnUse"><stop offset=".622" style="stop-color:#801517"/><stop offset=".739" style="stop-color:#f15826"/></linearGradient><path d="M247.1 81.3c0-14-11.8-21-34.1-21h-55.5l-1.7-3.6-4 3.6-22.5 78.4H151l4-3.6-2.3-2.5 5.6-19.5h33.4l21.9 25.5h23.6l4-3.6-8-1.7-19.3-21.3c20.9-3.5 33.2-15.3 33.2-30.7zm-46.3 15.6H163l5.9-20.3h38.9c13.4 0 18.4 2.3 18.4 8.4-.1 7.2-8.1 11.9-25.4 11.9z" style="fill:url(#SVGID_2_)"/><linearGradient id="SVGID_3_" x1="777.52" x2="777.52" y1="-555.264" y2="315.175" gradientTransform="matrix(1 0 0 -1 0 143.305)" gradientUnits="userSpaceOnUse"><stop offset=".622" style="stop-color:#801517"/><stop offset=".739" style="stop-color:#f15826"/></linearGradient><path d="M851.2 60.3h-22.9l-1-3.5-4 3.5-54.3 61.1-16.8-61.1h-20.8l-1.1-3.5-4 3.5-22.5 78.5h21.5l4-3.6-2.8-.6 13.4-46.5 15.3 50.7h21.2l4-3.6-.6-.2 41.9-46.6-14.5 50.4h21.5l4.1-3.6-2.9-.5z" style="fill:url(#SVGID_3_)"/><linearGradient id="SVGID_4_" x1="552.319" x2="552.319" y1="-555.264" y2="315.175" gradientTransform="matrix(1 0 0 -1 0 143.305)" gradientUnits="userSpaceOnUse"><stop offset=".622" style="stop-color:#801517"/><stop offset=".739" style="stop-color:#f15826"/></linearGradient><path d="m559.8 60.3-3.1-3.5-4 3.5-22.5 78.5h21.7l4.1-3.6-2.5-1.8 20.9-73.1z" style="fill:url(#SVGID_4_)"/><linearGradient id="SVGID_5_" x1="452.912" x2="452.912" y1="-555.272" y2="315.178" gradientTransform="matrix(1 0 0 -1 0 143.305)" gradientUnits="userSpaceOnUse"><stop offset=".622" style="stop-color:#801517"/><stop offset=".739" style="stop-color:#f15826"/></linearGradient><path d="M504 60.3c-.3-1.5-1.3-3.6-1.3-3.6l-4 3.6-54.3 61.1-16.8-61.1h-19.9l-1.9-3.6-4 3.6-22.5 78.4h21.5l4-3.6-2.4-1.8 13-45.2 15.3 50.6h21.2l4-3.6-.3-.5 41.6-46.3-14.4 50.4h21.5l4-3.6-2.7-1.1 21.2-73.8-22.8.1z" style="fill:url(#SVGID_5_)"/><linearGradient id="SVGID_6_" x1="319.072" x2="319.072" y1="-555.264" y2="315.175" gradientTransform="matrix(1 0 0 -1 0 143.305)" gradientUnits="userSpaceOnUse"><stop offset=".622" style="stop-color:#801517"/><stop offset=".739" style="stop-color:#f15826"/></linearGradient><path d="m288.5 60.3-2.7-3.5-4 3.5-22.5 78.5h97.1l4-3.6-2.7-1 3.3-11.4h-75.4l4.4-15.5h70.6l4-3.6-2.5-1.1 3.5-10.9h-71.1l4.4-15.4h74.9l4-3.6-2.6-.9 3.7-11.5z" style="fill:url(#SVGID_6_)"/><linearGradient id="SVGID_7_" x1="644.137" x2="644.137" y1="-565.468" y2="318.81" gradientTransform="matrix(1 0 0 -1 0 143.305)" gradientUnits="userSpaceOnUse"><stop offset=".622" style="stop-color:#801517"/><stop offset=".739" style="stop-color:#f15826"/></linearGradient><path d="m682.5 56.8-4 3.6-10.8 37.5c-4.9 17.3-16.7 26-34.4 26-19.9 0-26.7-8.7-21.8-26l10.8-37.5h-14.8c-.3-.9-3-3.6-3-3.6l-4 3.6-10.3 36c-7.9 27.9 6.5 43.8 39.9 43.8 34.1 0 51.2-13.4 59.9-43.8l10.3-36h-15.5l-2.3-3.6z" style="fill:url(#SVGID_7_)"/><linearGradient id="SVGID_8_" x1="432.049" x2="432.049" y1="-537.524" y2="308.856" gradientTransform="matrix(1 0 0 -1 0 143.305)" gradientUnits="userSpaceOnUse"><stop offset=".622" style="stop-color:#d22b27"/><stop offset=".739" style="stop-color:#f8981d"/></linearGradient><path d="m37.4 111.3-6.8 23.9H8.9l22.5-78.4h60.8c22.5 0 34.4 7.8 34.4 21.2 0 19.7-15.2 33.4-49.2 33.4h-40zm11-38.2L42.1 95h38.6c15.9 0 25-4.6 25-13.6 0-6.2-5-8.4-18.7-8.4l-38.6.1zm147.3 36.6h-33.4l-7.3 25.5h-21.7l22.5-78.4H217c22.3 0 34.1 7 34.1 21 0 15.4-12.3 27.2-33.2 30.7l23.8 26.3-.4.4h-23.6l-22-25.5zm-22.8-36.6L167 93.4h37.8c17.3 0 25.3-4.8 25.3-11.9 0-6.1-5-8.4-18.4-8.4h-38.8zm112.9-16.3h97.1l-5.1 16h-74.9l-4.5 15.4h71.2l-5 15.5H294l-4.5 15.5H365l-4.6 16h-97.1l22.5-78.4zm133.5 27.8-14.6 50.6h-21.5l22.5-78.4h25.9l16.8 61.1 54.3-61.1h27.9l-22.5 78.4h-21.5L501 84.8l-45.3 50.4h-21.2l-15.2-50.6zm137.4-27.8h21.7L556 135.2h-21.7l22.4-78.4zm37.5 35.9 10.3-36h21.7l-10.8 37.5c-4.9 17.3 2 26 21.8 26 17.7 0 29.5-8.7 34.4-26l10.8-37.5h21.7l-10.3 36c-8.7 30.4-25.7 43.8-59.9 43.8-33.2 0-47.6-15.9-39.7-43.8zm149.7-8.1-14.6 50.6h-21.5l22.5-78.4h25.9l16.8 61.1 54.3-61.1h27.9l-22.5 78.4h-21.5l14.4-50.4-45.3 50.4h-21.2l-15.2-50.6z" style="fill:url(#SVGID_8_)"/></svg>