<svg width="85" height="9" viewBox="0 0 85 9" fill="none" xmlns="http://www.w3.org/2000/svg">
<path d="M4.98047 6.00781H1.75293L1.02051 8H0.390625L3.08105 0.890625H3.65234L6.34277 8H5.71777L4.98047 6.00781ZM1.93848 5.49512H4.79004L3.36426 1.62305L1.93848 5.49512ZM7.02148 5.30957C7.02148 4.48926 7.20378 3.83659 7.56836 3.35156C7.9362 2.86328 8.43424 2.61914 9.0625 2.61914C9.77539 2.61914 10.319 2.90072 10.6934 3.46387V0.5H11.2744V8H10.7275L10.7031 7.29688C10.3288 7.83073 9.77865 8.09766 9.05273 8.09766C8.44401 8.09766 7.95247 7.85352 7.57812 7.36523C7.20703 6.8737 7.02148 6.21126 7.02148 5.37793V5.30957ZM7.6123 5.41211C7.6123 6.08594 7.7474 6.61816 8.01758 7.00879C8.28776 7.39616 8.66862 7.58984 9.16016 7.58984C9.87956 7.58984 10.3906 7.27246 10.6934 6.6377V4.15723C10.3906 3.47038 9.88281 3.12695 9.16992 3.12695C8.67839 3.12695 8.2959 3.32064 8.02246 3.70801C7.74902 4.09212 7.6123 4.66016 7.6123 5.41211ZM13.3447 2.7168L13.3643 3.57617C13.5596 3.25716 13.8037 3.0179 14.0967 2.8584C14.3896 2.69889 14.7152 2.61914 15.0732 2.61914C15.9066 2.61914 16.4355 2.96094 16.6602 3.64453C16.849 3.31576 17.1012 3.06348 17.417 2.8877C17.7327 2.70866 18.0811 2.61914 18.4619 2.61914C19.5947 2.61914 20.1725 3.23763 20.1953 4.47461V8H19.6094V4.51855C19.6061 4.04655 19.5036 3.69661 19.3018 3.46875C19.1032 3.24089 18.7777 3.12695 18.3252 3.12695C17.9053 3.13346 17.5505 3.27018 17.2607 3.53711C16.971 3.80078 16.8099 4.12305 16.7773 4.50391V8H16.1914V4.47461C16.1882 4.02214 16.0807 3.68522 15.8691 3.46387C15.6608 3.23926 15.3385 3.12695 14.9023 3.12695C14.5345 3.12695 14.2188 3.23275 13.9551 3.44434C13.6914 3.65267 13.4961 3.96354 13.3691 4.37695V8H12.7832V2.7168H13.3447ZM22.334 8H21.748V2.7168H22.334V8ZM21.6455 1.18848C21.6455 1.0778 21.6813 0.985026 21.7529 0.910156C21.8245 0.832031 21.9222 0.792969 22.0459 0.792969C22.1696 0.792969 22.2673 0.832031 22.3389 0.910156C22.4137 0.985026 22.4512 1.0778 22.4512 1.18848C22.4512 1.29915 22.4137 1.39193 22.3389 1.4668C22.2673 1.54167 22.1696 1.5791 22.0459 1.5791C21.9222 1.5791 21.8245 1.54167 21.7529 1.4668C21.6813 1.39193 21.6455 1.29915 21.6455 1.18848ZM25.8789 7.60449C26.2858 7.60449 26.626 7.49056 26.8994 7.2627C27.1761 7.03158 27.3258 6.73372 27.3486 6.36914H27.9102C27.8939 6.69141 27.793 6.986 27.6074 7.25293C27.4219 7.5166 27.1745 7.72331 26.8652 7.87305C26.5592 8.02279 26.2305 8.09766 25.8789 8.09766C25.1855 8.09766 24.6354 7.85677 24.2285 7.375C23.8249 6.89323 23.623 6.24544 23.623 5.43164V5.25586C23.623 4.73503 23.7142 4.27441 23.8965 3.87402C24.0788 3.47363 24.3392 3.16439 24.6777 2.94629C25.0195 2.72819 25.4183 2.61914 25.874 2.61914C26.4535 2.61914 26.9303 2.79167 27.3047 3.13672C27.6823 3.48177 27.8841 3.93587 27.9102 4.49902H27.3486C27.3226 4.08561 27.1729 3.75195 26.8994 3.49805C26.6292 3.24414 26.2874 3.11719 25.874 3.11719C25.3467 3.11719 24.9365 3.30762 24.6436 3.68848C24.3538 4.06934 24.209 4.60319 24.209 5.29004V5.46094C24.209 6.13477 24.3538 6.66048 24.6436 7.03809C24.9365 7.41569 25.3483 7.60449 25.8789 7.60449ZM31.5234 3.21484C31.3997 3.19206 31.2679 3.18066 31.1279 3.18066C30.7633 3.18066 30.4541 3.2832 30.2002 3.48828C29.9495 3.6901 29.7705 3.9847 29.6631 4.37207V8H29.082V2.7168H29.6533L29.6631 3.55664C29.9723 2.93164 30.4688 2.61914 31.1523 2.61914C31.3151 2.61914 31.4437 2.6403 31.5381 2.68262L31.5234 3.21484ZM32.0312 5.28027C32.0312 4.77246 32.1289 4.3151 32.3242 3.9082C32.5228 3.5013 32.8011 3.18555 33.1592 2.96094C33.5205 2.73307 33.929 2.61914 34.3848 2.61914C35.0879 2.61914 35.6576 2.86654 36.0938 3.36133C36.5299 3.85286 36.748 4.50553 36.748 5.31934V5.44141C36.748 5.95247 36.6488 6.41309 36.4502 6.82324C36.2549 7.23014 35.9782 7.54427 35.6201 7.76562C35.262 7.98698 34.8535 8.09766 34.3945 8.09766C33.6947 8.09766 33.125 7.85189 32.6855 7.36035C32.2493 6.86556 32.0312 6.21126 32.0312 5.39746V5.28027ZM32.6172 5.44141C32.6172 6.07292 32.7799 6.59212 33.1055 6.99902C33.4342 7.40267 33.8639 7.60449 34.3945 7.60449C34.9219 7.60449 35.3483 7.40267 35.6738 6.99902C36.0026 6.59212 36.167 6.05664 36.167 5.39258V5.28027C36.167 4.87663 36.0921 4.50716 35.9424 4.17188C35.7926 3.83659 35.5827 3.5778 35.3125 3.39551C35.0423 3.20996 34.7331 3.11719 34.3848 3.11719C33.8639 3.11719 33.4391 3.32227 33.1104 3.73242C32.7816 4.13932 32.6172 4.67318 32.6172 5.33398V5.44141ZM44.0283 6.34473H41.3672L40.5176 8H39.2188L43.0566 0.890625H44.1406L45.5176 8H44.3066L44.0283 6.34473ZM41.875 5.34863H43.8672L43.3838 2.40918L41.875 5.34863ZM46.5039 5.35352C46.569 4.8099 46.7155 4.32161 46.9434 3.88867C47.1712 3.45573 47.4528 3.13346 47.7881 2.92188C48.1234 2.70703 48.4961 2.60449 48.9062 2.61426C49.4434 2.62728 49.8633 2.82747 50.166 3.21484L50.6738 0.5H51.8359L50.5322 8H49.4971L49.5752 7.45312C49.165 7.89909 48.6833 8.11556 48.1299 8.10254C47.6383 8.09603 47.2445 7.90723 46.9482 7.53613C46.6553 7.16178 46.4974 6.66536 46.4746 6.04688C46.4648 5.84505 46.4697 5.64811 46.4893 5.45605L46.5039 5.35352ZM47.627 5.80762C47.6042 6.21126 47.666 6.5319 47.8125 6.76953C47.9622 7.00716 48.1836 7.12923 48.4766 7.13574C48.9225 7.14876 49.3083 6.93229 49.6338 6.48633L50.0293 4.21582C49.8763 3.80892 49.5801 3.59896 49.1406 3.58594C48.6979 3.57292 48.3415 3.76823 48.0713 4.17188C47.8011 4.57552 47.653 5.12077 47.627 5.80762ZM54.9951 3.4541L56.8408 0.890625H58.2959L55.6152 4.46973L57.168 8H55.8301L54.7559 5.39746L52.8613 8H51.4014L54.1406 4.3623L52.6221 0.890625H53.9502L54.9951 3.4541Z" fill="#626262"></path>
<path d="M65.1416 4.82617H62.3096L61.9287 7.01367H65.2393L65.0684 8H60.5518L61.7822 0.890625H66.2695L66.0938 1.88672H62.8174L62.4756 3.84961H65.3125L65.1416 4.82617ZM68.1836 7.15527C68.4603 7.16178 68.7044 7.08203 68.916 6.91602C69.1309 6.74674 69.2676 6.52702 69.3262 6.25684L70.4199 6.25195C70.3841 6.60026 70.2572 6.91764 70.0391 7.2041C69.8242 7.49056 69.5475 7.71354 69.209 7.87305C68.8704 8.03255 68.5173 8.10742 68.1494 8.09766C67.6969 8.09115 67.3112 7.97396 66.9922 7.74609C66.6732 7.51823 66.4404 7.2041 66.2939 6.80371C66.1475 6.40007 66.0986 5.95085 66.1475 5.45605L66.1621 5.28516C66.2174 4.77409 66.3656 4.31185 66.6064 3.89844C66.8506 3.48177 67.1647 3.16113 67.5488 2.93652C67.9329 2.71191 68.3594 2.60612 68.8281 2.61914C69.401 2.63216 69.8584 2.82259 70.2002 3.19043C70.542 3.55501 70.7129 4.03027 70.7129 4.61621H69.6289C69.6289 4.31348 69.554 4.06608 69.4043 3.87402C69.2578 3.68197 69.0446 3.57943 68.7646 3.56641C68.3122 3.55339 67.9557 3.74544 67.6953 4.14258C67.4349 4.53971 67.2949 5.09961 67.2754 5.82227C67.2526 6.69792 67.5553 7.14225 68.1836 7.15527ZM71.2842 5.33887C71.3395 4.82129 71.4909 4.35091 71.7383 3.92773C71.9889 3.50456 72.3096 3.17741 72.7002 2.94629C73.0908 2.71517 73.5238 2.60612 73.999 2.61914C74.4515 2.62565 74.8421 2.74609 75.1709 2.98047C75.4997 3.21484 75.7389 3.53548 75.8887 3.94238C76.0417 4.34928 76.0954 4.80176 76.0498 5.2998C75.9977 5.8597 75.8447 6.35449 75.5908 6.78418C75.3402 7.21387 75.0179 7.54427 74.624 7.77539C74.2334 8.00326 73.7988 8.11068 73.3203 8.09766C72.8711 8.09115 72.4821 7.97233 72.1533 7.74121C71.8278 7.50684 71.5885 7.18783 71.4355 6.78418C71.2826 6.37728 71.2272 5.92969 71.2695 5.44141L71.2842 5.33887ZM72.4219 6.00781C72.4382 6.34961 72.5277 6.62467 72.6904 6.83301C72.8564 7.03809 73.0859 7.14551 73.3789 7.15527C73.776 7.16504 74.1081 7.01204 74.375 6.69629C74.6452 6.38053 74.8145 5.94922 74.8828 5.40234L74.9121 4.92383C74.9121 4.50716 74.8291 4.18001 74.6631 3.94238C74.4971 3.70475 74.2562 3.57943 73.9404 3.56641C73.4456 3.55339 73.055 3.7959 72.7686 4.29395C72.596 4.59668 72.487 4.94499 72.4414 5.33887C72.4154 5.6123 72.4089 5.83529 72.4219 6.00781ZM78.5791 2.71191L78.4766 3.27344C78.9128 2.82422 79.4336 2.60612 80.0391 2.61914C80.3711 2.62565 80.6462 2.70215 80.8643 2.84863C81.0856 2.99512 81.2354 3.1888 81.3135 3.42969C81.8018 2.8763 82.3617 2.60612 82.9932 2.61914C83.5075 2.63216 83.8883 2.80957 84.1357 3.15137C84.3864 3.48991 84.4808 3.96517 84.4189 4.57715L83.8477 8H82.6904L83.2666 4.56738C83.2829 4.42415 83.2845 4.29232 83.2715 4.17188C83.2194 3.79102 82.9785 3.5957 82.5488 3.58594C82.0703 3.57292 81.6927 3.83496 81.416 4.37207L81.4014 4.47949L80.7959 8H79.6338L80.21 4.58203C80.2262 4.44206 80.2279 4.31185 80.2148 4.19141C80.1628 3.79753 79.9219 3.5957 79.4922 3.58594C79.0592 3.57943 78.6979 3.77311 78.4082 4.16699L77.7393 8H76.582L77.4951 2.7168L78.5791 2.71191Z" fill="#00A78D"></path>
</svg>