<svg xmlns="http://www.w3.org/2000/svg" xml:space="preserve" id="Layer_1" x="0" y="0" style="enable-background:new -227 364 157 65" version="1.1" viewBox="-227 364 157 65"><style>.st0{fill:#fff}.st1{fill:#cb2026}.st2{fill:#293787}</style><path d="M-174.9 407.3c0 .5.2.9.4 1.2-.2.3-.3.7-.3 1.2v1.4c0 .7.2 1.2.7 1.6l-.1.1H-72c.5-.3.8-1 .8-1.6v-1.4c0-1.1-.8-1.9-1.9-2l2.5-3c.5-.6.6-1.4.2-2.1-.3-.7-1.1-1.2-1.8-1.2h-1.6V391l3.3-3.9c.3-.3.5-.8.5-1.3 0-1.2-.9-2-2-2h-1.8v-5.9c0-.8-.5-1.6-1.2-1.9-.2-.1-.5-.2-.8-.2-.5 0-1 .2-1.4.6l-4.3 4.1c-.4.4-.6.9-.6 1.5v5.6l-2.7-4c-.3-.5-.9-.8-1.5-.8h-.2c-.6 0-1.1.2-1.4.6l-6.7 6.8c-.1.1-.1.2-.2.2v-2c0-.4-.2-.9-.4-1.2l-2.8-3.6c-.3-.5-.9-.7-1.5-.7h-.1c-.6 0-1.1.2-1.5.6l-1.2 1.3c0-.7-.5-1.5-1.2-1.7-.2-.1-.5-.2-.7-.2-.6 0-1.1.2-1.5.7l-4.3 4.4c-.3.4-.6.9-.6 1.4v14.2c0-.3 0-.7-.2-1-.3-.7-1.1-1.2-1.8-1.2h-.6v-12.9c0-.5-.2-.9-.5-1.3l-3-3.7c-.3-.4-.9-.7-1.4-.7h-.2c-.5 0-1 .2-1.4.6l-2.6 2.5-1.8-2.2c-.3-.4-.9-.7-1.5-.7h-.1c-.6 0-1.1.2-1.4.6l-.5.6c-.2-.4-.6-.8-1.1-1-.2-.1-.5-.2-.7-.2-.6 0-1.1.2-1.5.7l-4.3 4.5c-.2.2-.3.5-.4.7-.1-.2-.2-.5-.4-.7l-4.4-4.6c-.4-.4-.9-.6-1.5-.6-.5 0-.9.2-1.3.5l-7.1 5.9v-.7c0-.4-.2-.9-.4-1.2l-2.8-3.6c-.2-.2-.3-.4-.6-.5l14.9-14.2c.7-.7.8-1.9.2-2.7-.4-.5-1-.7-1.6-.7-.4 0-.8.1-1.2.3l-25 16.9v-4.9c0-.8-.5-1.6-1.2-1.8-.2-.1-.5-.2-.8-.2-.5 0-1 .2-1.4.6l-4.3 4.1c-.4.4-.7.9-.7 1.5v5.7l-2.8-4c-.3-.5-.9-.8-1.5-.8h-.2c-.6 0-1.1.2-1.5.6l-6.6 6.8c-.1.1-.2.2-.2.3v-6c3.2-1.3 5.5-4.4 5.5-8.2 0-4.9-3.9-8.9-8.9-8.9-4.8-.1-8.7 3.9-8.7 8.8 0 2.5 1.1 4.8 2.7 6.3h-1.5v.1H-224.7c-.9 0-1.6.6-1.9 1.4s0 1.7.7 2.2c10.3 7.3 16.3 17.2 19.6 24.1 3.5 7.6 4.7 13.5 4.7 13.6.2.7.7 1.3 1.4 1.6.2.1.4.1.6.1.5 0 1-.2 1.4-.6l16.1-15.6c.2-.2.2-.2.3-.4h2.1c.6 0 1.1-.2 1.5-.7l3-3.2.3 1.8z" class="st0"/><path d="M-185.2 401.1h12.9v11.8h-12.9z" class="st0"/><path d="m-71.2 422.6-118-.2-1.4-11.6h119.4z" class="st0"/><path d="M-80 407.3h4.7l3.1-4h-3.5v-13.1l3.9-4.4h-3.9v-7.9L-80 382v25.3m-8.8-9.4v-9.4l3.5 5.3-3.5 4.1m-4.2 9.4h6.5l3.7-4h-6v-4l6.8-8.1-4.4-6.4-6.7 6.8.1 15.7m-15.5 0h4.3v-16.5l1.9-1.8 1.5 1.8v16.4h3.6l3.1-4h-2.6v-14.8l-2.8-3.6-4.7 4.9v-4.9l-4.3 4.4v18.1m35.3 3.7h-99.6v-1.4h99.6v1.4M-184.2 376.4c0 3.8-3 6.8-6.8 6.8s-6.8-3-6.8-6.8c0-3.9 3-6.8 6.8-6.8 3.7-.1 6.8 3 6.8 6.8m-2.8 22.9-1.7 1.2v1.8h1.7v-3" class="st1"/><path d="m-133.7 389.3 4.3-4.5v3.9l3.8-3.9 3.1 4 4.2-4 3 3.7v14.8h2.6l-3.1 4h-3.5v-16.2l-1.9-2.3-1.2 1.2v17.4h-4v-16.5l-1.9-2.1-1.2 1.2v17.4h-4.3v-18.1m-15 8.6 7.3-6.6-2.9-3.1v3.3h-4.6v-.7l7.2-5.9 4.4 4.6v13.9h2.7l-3.1 4h-3.7V404l-3.8 3.3h-3.5v-9.4m7.2 5.5v-10.9l-3 2.8v8l3 .1m-22.5-14.1 4.3-4.5v4.9l4.8-4.9 2.8 3.6v14.9h2.6l-3 4h-3.6v-16.5l-1.6-1.8-2 1.8v16.5h-4.3v-18m-8.8-7.3 4.3-4.1v7.9h3.8l-3.8 4.4v13.2h3.5l-3.1 4h-4.7V382m-13.1 9.7 6.6-6.8 4.5 6.4-6.8 8.1v4h5.9l-3.7 4h-6.5v-15.7m7.8 2.1-3.5-5.4v9.5l3.5-4.1m-15.7-4.5 4.2-4.5v18.5h2.6l-3 4h-3.7l-.1-18" class="st2"/><path d="m-180.7 399.7 6.8-8v7.6l-3.2 3.1h-3.6zM-167.7 393.3l2.4-2.3.2-2.1 6.2-6.6v2.5l18.3-17.3-25.4 17.3h3.3l-5 5.7zM-183.3 408.3l-16.1 15.5s-4.4-24.2-25.1-39.1h25.4v22.8l4.1-2.9v3.5h5.2l2.7-3.5v3.5h3.8v.2z" class="st1"/><path d="m-186.8 422.2.1.4.1-.4 1.5-5h1.5l-2.3 6.8h-1.4l-2.3-6.8h1.5l1.3 5z" class="st2"/><path d="M-186 425.8h-1.4c-.8 0-1.5-.5-1.7-1.2l-2.3-6.8c-.2-.5-.1-1.2.2-1.6.3-.5.9-.7 1.5-.7h1.5c.7 0 1.3.4 1.6 1 .3-.6.9-1 1.6-1h1.5c.6 0 1.1.3 1.5.7.3.5.4 1.1.2 1.6l-2.3 6.8c-.6.7-1.2 1.2-1.9 1.2z" class="st0"/><path d="M-181.6 416.6h-1.2l-1.3-1.2h1.6l.9 1.2zm0 7.4h-1.4v-6.8h1.4v6.8z" class="st2"/><path d="M-181.6 425.8h-1.4c-1 0-1.8-.8-1.8-1.8V417.1l-.6-.6c-.5-.5-.7-1.2-.5-1.9.2-.7.9-1.3 1.7-1.3h1.6c.6 0 1.1.3 1.4.7l.9 1.3c.3.4.4.9.3 1.3v7.2c.1 1.2-.7 2-1.6 2z" class="st0"/><path d="m-176.1 422.2.1.4.1-.4 1.5-5h1.5l-2.3 6.8h-1.4l-2.3-6.8h1.5l1.3 5z" class="st2"/><path d="M-175.2 425.8h-1.4c-.8 0-1.5-.5-1.7-1.2l-2.3-6.8c-.2-.5-.1-1.2.2-1.6.3-.5.9-.7 1.5-.7h1.5c.7 0 1.3.4 1.6 1 .3-.6.9-1 1.6-1h1.4c.6 0 1.1.3 1.5.7.3.5.4 1.1.2 1.6l-2.3 6.8c-.5.7-1.2 1.2-1.8 1.2z" class="st0"/><path d="M-170.9 424h-1.4v-6.8h1.4v6.8z" class="st2"/><path d="M-170.9 425.8h-1.4c-1 0-1.8-.8-1.8-1.8v-6.8c0-1 .8-1.8 1.8-1.8h1.4c1 0 1.8.8 1.8 1.8v6.8c0 1-.8 1.8-1.8 1.8z" class="st0"/><path d="M-165.6 421.1h-2.5v2h3v1h-4.4v-6.8h4.4v1.1h-3v1.8h2.5v.9zm0-4.6-1.1.1-.7-.6-.7.6h-1.1v-.1l1.4-1.1h.8l1.4 1.1zm-1 9.2h-1.6v-1.2h1.6v1.2z" class="st2"/><path d="M-166.6 427.4h-1.6c-1 0-1.7-.7-1.8-1.7-.8-.2-1.5-.9-1.5-1.8v-6.8c0-.5.2-1 .6-1.3.1-.3.3-.6.6-.8l1.4-1.1c.3-.3.7-.4 1.2-.4h.8c.4 0 .8.2 1.2.4l1.4 1.2c.3.2.5.5.6.9.3.3.5.8.5 1.3v1.1c0 .5-.2 1-.5 1.3 0 .1.1.3.1.5v.9c0 .2 0 .4-.1.6.4.3.6.8.6 1.3v1.1c0 .9-.6 1.6-1.5 1.8-.3.8-1 1.5-2 1.5z" class="st0"/><path d="M-159.4 418.3h-2v5.8h-1.4v-5.8h-2v-1.1h5.3v1.1z" class="st2"/><path d="M-161.4 425.8h-1.4c-1 0-1.8-.8-1.8-1.8v-4h-.2c-1 0-1.8-.8-1.8-1.8v-1.1c0-1 .8-1.8 1.8-1.8h5.3c1 0 1.8.8 1.8 1.8v1.1c0 1-.8 1.8-1.8 1.8h-.2v4c.1 1-.7 1.8-1.7 1.8z" class="st0"/><path d="M-150.8 424h-1.4l-2.7-4.6v4.6h-1.4v-6.8h1.4l2.7 4.6v-4.6h1.4v6.8z" class="st2"/><path d="M-150.8 425.8h-1.4c-.6 0-1.1-.3-1.4-.7-.3.4-.8.7-1.4.7h-1.4c-1 0-1.8-.8-1.8-1.8v-6.8c0-1 .8-1.8 1.8-1.8h1.4c.6 0 1.1.3 1.4.7.3-.4.8-.7 1.4-.7h1.4c1 0 1.8.8 1.8 1.8v6.8c-.1 1-.8 1.8-1.8 1.8z" class="st0"/><path d="M-145.9 422.6h-2.2l-.4 1.5h-1.5l2.3-6.8h1.4l2.2 6.8h-1.5l-.3-1.5zm-1.9-1.1h1.6l-.8-2.4-.8 2.4z" class="st2"/><path d="M-144 425.8h-1.5c-.7 0-1.3-.4-1.6-1-.3.6-.9 1-1.6 1h-1.5c-.6 0-1.1-.3-1.5-.7-.3-.5-.4-1.1-.2-1.6l2.3-6.8c.2-.7.9-1.2 1.7-1.2h1.4c.8 0 1.5.5 1.7 1.2l2.2 6.8c.2.5.1 1.1-.2 1.6-.1.4-.6.7-1.2.7z" class="st0"/><path d="m-139.8 422.3 1.8-5h1.8v6.8h-1.4v-4.7l-1.7 4.7h-.9l-1.7-4.7v4.6h-1.4v-6.8h1.8l1.7 5.1z" class="st2"/><path d="M-136.3 425.8h-1.4c-.3 0-.6-.1-.9-.2-.3.1-.6.2-.9.2h-.9c-.3 0-.6-.1-.9-.2-.3.1-.6.2-.9.2h-1.4c-1 0-1.8-.8-1.8-1.8v-6.8c0-1 .8-1.8 1.8-1.8h1.8c.8 0 1.4.5 1.7 1.2l.1.3.1-.3c.3-.7.9-1.2 1.7-1.2h1.8c1 0 1.8.8 1.8 1.8v6.8c.1 1-.7 1.8-1.7 1.8z" class="st0"/><path d="M-127.1 424h-1.4v-2.8h-2.7v2.8h-1.4v-6.8h1.4v2.9h2.7v-2.9h1.4v6.8z" class="st2"/><path d="M-127.1 425.8h-1.4c-.6 0-1.1-.3-1.4-.7-.3.4-.8.7-1.4.7h-1.4c-1 0-1.8-.8-1.8-1.8v-6.8c0-1 .8-1.8 1.8-1.8h1.4c.6 0 1.1.3 1.4.7.3-.4.8-.7 1.4-.7h1.4c1 0 1.8.8 1.8 1.8v6.8c0 1-.8 1.8-1.8 1.8z" class="st0"/><path d="M-120.4 417.3v4.5c0 .8-.3 1.4-.8 1.8-.5.4-1.2.7-2 .7s-1.5-.2-2-.7c-.5-.4-.8-1.1-.8-1.8v-4.5h1.4v4.5c0 .5.1.8.4 1.1.2.2.6.4 1 .4s.8-.1 1-.4c.3-.2.4-.6.4-1.1v-4.5h1.4zm-2.2-.7h-1.2l-1.3-1.2h1.6l.9 1.2z" class="st2"/><path d="M-123.2 425.9c-1.3 0-2.2-.4-3.1-1.1-.6-.5-1.4-1.5-1.4-3.1v-4.5c0-.7.4-1.3 1-1.6-.1-.3 0-.6.1-.9.2-.7.9-1.3 1.7-1.3h1.6c.6 0 1.1.3 1.4.7l.9 1.2h.7c1 0 1.8.8 1.8 1.8v4.5c0 1.3-.5 2.3-1.4 3.1-1 .9-2.1 1.2-3.3 1.2z" class="st0"/><path d="M-113.8 424h-1.4l-2.7-4.6v4.6h-1.4v-6.8h1.4l2.7 4.6v-4.6h1.4v6.8z" class="st2"/><path d="M-113.8 425.8h-1.4c-.6 0-1.1-.3-1.4-.7-.3.4-.8.7-1.4.7h-1.4c-1 0-1.8-.8-1.8-1.8v-6.8c0-1 .8-1.8 1.8-1.8h1.4c.6 0 1.1.3 1.4.7.3-.4.8-.7 1.4-.7h1.4c1 0 1.8.8 1.8 1.8v6.8c0 1-.8 1.8-1.8 1.8z" class="st0"/><path d="M-107.4 423.1c-.2.3-.5.5-1 .7-.4.2-1 .3-1.7.3-.8 0-1.5-.3-2.1-.8-.5-.5-.8-1.2-.8-2.1v-1.5c0-.8.3-1.5.8-2.1.5-.5 1.2-.8 2-.8.9 0 1.5.2 2 .6s.7.9.7 1.6h-1.3c0-.4-.1-.7-.3-.9-.2-.2-.5-.3-.9-.3s-.8.2-1 .5c-.3.3-.4.8-.4 1.3v1.5c0 .5.1 1 .4 1.3s.6.5 1.1.5c.3 0 .6 0 .8-.1.2-.1.3-.2.4-.3v-1.4h-1.3v-1h2.6v3z" class="st2"/><path d="M-109.9 425.9c-1.3 0-2.4-.5-3.2-1.3-.9-.9-1.3-2-1.3-3.2v-1.5c0-1.3.4-2.4 1.3-3.2.9-.9 2-1.3 3.2-1.3s2.3.4 3.1 1.1c.9.8 1.3 1.8 1.3 2.9 0 .1 0 .3-.1.4.1.2.2.5.2.8v2.6c0 .4-.1.8-.4 1.1-.4.5-.9.9-1.6 1.3-.7.2-1.5.3-2.5.3z" class="st0"/><path d="M-99.6 421.8c0 .8-.2 1.4-.7 1.8-.5.4-1.1.6-1.9.6s-1.5-.3-2-.8-.8-1.2-.8-2.1v-1.4c0-.8.3-1.5.8-2.1.5-.5 1.2-.8 2-.8s1.5.2 2 .6.7 1 .7 1.8h-1.4c0-.4-.1-.8-.3-1-.2-.2-.5-.3-1-.3-.4 0-.7.2-1 .5-.2.3-.4.8-.4 1.3v1.4c0 .5.1 1 .4 1.3.2.3.6.5 1 .5s.7-.1.9-.3c.2-.2.3-.6.3-1h1.4z" class="st2"/><path d="M-102.2 425.9h-.3c-1.2-.1-2.2-.5-2.9-1.4-.8-.9-1.3-2-1.3-3.2v-1.4c0-1.3.4-2.3 1.2-3.2.8-.9 2-1.4 3.2-1.4s2.3.4 3.1 1.1c.6.5 1.3 1.5 1.3 3 0 .2 0 .4-.1.5-.1.2-.2.5-.4.6.2.2.3.4.4.6.1.2.1.4.1.5 0 1.6-.7 2.5-1.3 3-.7 1-1.7 1.3-3 1.3z" class="st0"/><path d="M-93.3 417.3v.9c.3-.1.5-.2.6-.5s.2-.6.2-1.1h1c0 .7-.1 1.3-.4 1.7-.3.4-.7.7-1.4.8v2.7c0 .8-.3 1.4-.8 1.8-.5.4-1.2.7-2 .7s-1.5-.2-2-.7c-.5-.4-.8-1.1-.8-1.8v-4.5h1.4v4.5c0 .5.1.8.4 1.1.2.2.6.4 1 .4s.8-.1 1-.4c.3-.2.4-.6.4-1.1v-4.5h1.4z" class="st2"/><path d="M-96 425.9c-1.3 0-2.2-.4-3.1-1.1-.6-.5-1.4-1.5-1.4-3.1v-4.5c0-1 .8-1.8 1.8-1.8h1.4c.6 0 1.1.3 1.4.7.3-.4.8-.7 1.4-.7h.7c.3-.4.8-.7 1.4-.7h1c1 0 1.8.8 1.8 1.8 0 1.1-.3 2-.8 2.7-.2.3-.6.7-1 1v1.5c0 1.3-.5 2.3-1.4 3.1-.9.8-2 1.1-3.2 1.1z" class="st0"/><path d="M-86.3 421.3c0 .9-.3 1.6-.8 2.1-.5.6-1.2.8-2.1.8-.9 0-1.6-.3-2.1-.8-.5-.6-.8-1.3-.8-2.1V420c0-.9.3-1.6.8-2.1.5-.6 1.2-.8 2.1-.8.4 0 .8.1 1.2.2.4.1.7.4.9.6.3-.1.6-.3.7-.5.2-.3.3-.6.3-1h1c0 .6-.1 1.1-.4 1.5-.3.4-.6.7-1.1.9.1.2.1.4.2.6 0 .2.1.4.1.7v1.2zm-2.1-4.7h-1.2l-1.3-1.2h1.6l.9 1.2zm.7 3.4c0-.5-.1-1-.4-1.3-.3-.3-.6-.5-1.1-.5s-.8.2-1.1.5c-.3.3-.4.8-.4 1.3v1.3c0 .6.1 1 .4 1.4.3.3.6.5 1.1.5s.9-.2 1.1-.5c.3-.3.4-.8.4-1.4V420z" class="st2"/><path d="M-89.2 425.9c-1.3 0-2.4-.5-3.3-1.4-.9-.9-1.3-2.1-1.3-3.3v-1.3c0-1.3.4-2.4 1.3-3.3l.3-.3c-.4-.5-.5-1.1-.3-1.7.2-.7.9-1.3 1.7-1.3h1.6c.6 0 1.1.3 1.4.7l.6.9c.3-.3.7-.5 1.2-.5h1c1 0 1.8.8 1.8 1.8 0 .9-.2 1.8-.6 2.4-.2.3-.4.5-.6.7V421c0 1.3-.5 2.4-1.3 3.3-1 1.1-2.2 1.6-3.5 1.6z" class="st0"/><path d="M-79.6 424H-81l-2.7-4.6v4.6h-1.4v-6.8h1.4l2.7 4.6v-4.6h1.4v6.8z" class="st2"/><path d="M-79.6 425.8H-81c-.6 0-1.1-.3-1.4-.7-.3.4-.8.7-1.4.7h-1.4c-1 0-1.8-.8-1.8-1.8v-6.8c0-1 .8-1.8 1.8-1.8h1.4c.6 0 1.1.3 1.4.7.3-.4.8-.7 1.4-.7h1.4c1 0 1.8.8 1.8 1.8v6.8c-.1 1-.8 1.8-1.8 1.8z" class="st0"/><path d="M-73.2 423.1c-.2.3-.5.5-1 .7-.4.2-1 .3-1.7.3-.8 0-1.5-.3-2.1-.8-.5-.5-.8-1.2-.8-2.1v-1.5c0-.8.3-1.5.8-2.1.5-.5 1.2-.8 2-.8.9 0 1.5.2 2 .6s.7.9.7 1.6h-1.3c0-.4-.1-.7-.3-.9-.2-.2-.5-.1-1-.1-.4 0-.8.2-1 .5-.3.3-.4.8-.4 1.3v1.5c0 .5.1 1 .4 1.3s.6.5 1.1.5c.3 0 .6 0 .8-.1s.3-.2.4-.3v-1.4h-1.3v-1h2.6c.1.1.1 2.8.1 2.8z" class="st2"/><path d="M-75.7 425.9c-1.3 0-2.4-.5-3.2-1.3-.9-.9-1.3-2-1.3-3.2v-1.5c0-1.3.4-2.4 1.3-3.2.9-.9 2-1.3 3.2-1.3 1.3 0 2.3.4 3.1 1.1.9.8 1.3 1.8 1.3 2.9 0 .1 0 .3-.1.4.1.2.2.5.2.8v2.6c0 .4-.1.8-.4 1.1-.4.5-.9.9-1.6 1.3-.7.2-1.5.3-2.5.3z" class="st0"/><g style="enable-background:new"><path d="m-187.1 422.3.1.4.1-.4 1.5-5h1.5l-2.3 6.8h-1.4l-2.3-6.8h1.5l1.3 5zM-181.9 416.7h-1.2l-1.3-1.2h1.6l.9 1.2zm0 7.4h-1.4v-6.8h1.4v6.8zM-175.7 422.2l.1.4.1-.4 1.5-5h1.5l-2.3 6.8h-1.4l-2.3-6.8h1.5l1.3 5zM-170.4 424.1h-1.4v-6.8h1.4v6.8zM-165.1 421.1h-2.5v2h3v1.1h-4.4v-6.8h4.4v1.1h-3v1.8h2.5v.8zm0-4.6-1.1.1-.7-.6-.7.6h-1.1v-.1l1.4-1.1h.8l1.4 1.1zm-1 9.2h-1.6v-1.2h1.6v1.2zM-159 418.3h-2v5.8h-1.4v-5.8h-2v-1.1h5.3v1.1zM-150.4 424.1h-1.4l-2.7-4.6v4.6h-1.4v-6.8h1.4l2.7 4.6v-4.6h1.4v6.8zM-145.5 422.6h-2.2l-.5 1.5h-1.5l2.3-6.8h1.4l2.2 6.8h-1.5l-.2-1.5zm-1.8-1.1h1.6l-.8-2.4-.8 2.4zM-139.3 422.3l1.8-5h1.8v6.8h-1.4v-4.7l-1.7 4.7h-.9l-1.7-4.7v4.7h-1.4v-6.8h1.8l1.7 5zM-126.6 424.1h-1.4v-2.8h-2.7v2.8h-1.4v-6.8h1.4v2.9h2.7v-2.9h1.4v6.8zM-120 417.3v4.5c0 .8-.3 1.4-.8 1.8s-1.2.7-2 .7-1.5-.2-2-.7c-.5-.4-.8-1.1-.8-1.8v-4.5h1.4v4.5c0 .5.1.8.4 1.1.2.2.6.4 1 .4s.8-.1 1-.4c.2-.3.4-.6.4-1.1v-4.5h1.4zm-2.1-.7h-1.2l-1.3-1.2h1.6l.9 1.2zM-113.3 424.1h-1.4l-2.7-4.6v4.6h-1.4v-6.8h1.4l2.7 4.6v-4.6h1.4v6.8zM-106.9 423.2c-.2.3-.5.5-1 .7-.4.2-1 .3-1.7.3-.8 0-1.5-.3-2.1-.8-.6-.5-.8-1.2-.8-2.1v-1.5c0-.8.3-1.5.8-2.1.5-.6 1.2-.8 2-.8.9 0 1.5.2 2 .6.5.4.7.9.7 1.6h-1.3c0-.4-.1-.7-.3-.9-.2-.2-.5-.3-.9-.3s-.8.2-1 .5-.4.8-.4 1.3v1.5c0 .5.1 1 .4 1.3.3.3.6.5 1.1.5.3 0 .6 0 .8-.1s.3-.2.4-.3v-1.3h-1.3v-1h2.6v2.9zM-99.2 421.8c0 .8-.2 1.4-.7 1.8s-1.1.6-1.9.6c-.8 0-1.5-.3-2-.8s-.8-1.2-.8-2.1V420c0-.8.3-1.5.8-2.1.5-.6 1.2-.8 2-.8s1.5.2 2 .6c.5.4.7 1 .7 1.8h-1.4c0-.4-.1-.8-.3-1-.2-.2-.5-.3-1-.3-.4 0-.7.2-1 .5-.2.3-.4.8-.4 1.3v1.4c0 .5.1 1 .4 1.3.2.3.6.5 1 .5s.7-.1.9-.3c.2-.2.3-.6.3-1h1.4zM-92.8 417.3v.9c.3-.1.5-.2.6-.5.1-.3.2-.6.2-1.1h1c0 .7-.1 1.3-.4 1.7-.3.4-.7.7-1.4.8v2.7c0 .8-.3 1.4-.8 1.8-.5.4-1.2.7-2 .7s-1.5-.2-2-.7c-.5-.5-.8-1.1-.8-1.8v-4.5h1.4v4.5c0 .5.1.8.4 1.1.3.3.6.4 1 .4s.8-.1 1-.4.4-.6.4-1.1v-4.5h1.4z" class="st2"/><path d="M-85.9 421.3c0 .9-.3 1.6-.8 2.1-.5.6-1.2.8-2.1.8s-1.6-.3-2.1-.8c-.5-.6-.8-1.3-.8-2.1V420c0-.9.3-1.6.8-2.1s1.2-.8 2.1-.8c.4 0 .8.1 1.2.2s.7.4.9.6c.3-.1.6-.3.7-.5.1-.2.3-.6.3-1h1c0 .6-.1 1.1-.4 1.5-.3.4-.6.7-1.1.9.1.2.1.4.2.6.1.2.1.4.1.7v1.2zm-2-4.7h-1.2l-1.3-1.2h1.6l.9 1.2zm.6 3.5c0-.5-.1-1-.4-1.3s-.6-.5-1.1-.5-.8.2-1.1.5-.4.8-.4 1.3v1.3c0 .6.1 1 .4 1.3s.6.5 1.1.5.9-.2 1.1-.5c.3-.3.4-.8.4-1.3v-1.3zM-79.2 424.1h-1.4l-2.7-4.6v4.6h-1.4v-6.8h1.4l2.7 4.6v-4.6h1.4v6.8zM-72.7 423.2c-.2.3-.5.5-1 .7s-1 .3-1.7.3c-.8 0-1.5-.3-2.1-.8-.6-.5-.8-1.2-.8-2.1v-1.5c0-.8.3-1.5.8-2.1s1.2-.8 2-.8c.9 0 1.5.2 2 .6.5.4.7.9.7 1.6h-1.3c0-.4-.1-.7-.3-.9-.2-.2-.5-.3-.9-.3s-.8.2-1 .5-.4.8-.4 1.3v1.5c0 .5.1 1 .4 1.3s.6.5 1.1.5c.3 0 .6 0 .8-.1s.3-.2.4-.3v-1.3h-1.3v-1h2.6v2.9z" class="st2"/></g><path d="M-181.6 425.8h4.6s-1.1-3-1.1-3.1c-.1-.1-1.9-4.2-1.9-4.2l-.2-.4-.5 3.5-.9 4.2zM-161.2 425.8h4.8s-.8-3.3-.8-3.7-.3-3.3-.3-3.3l-1.9.5-.6.3-.6 5.2-.6 1zM-136.3 425.8h3.7l.2-10.4-3.6.1.5 5.5.6 3.1zM-109.9 425.9l1-.7 2.2-1.2 1-.5 1.6.3s.4.7.4.8c0 .1 1.5 1.4 1.5 1.4h-7.7z" class="st0"/></svg>